<?xml version="1.0" encoding="UTF-8"?>
<svg id="Layer_1" data-name="Layer 1" xmlns="http://www.w3.org/2000/svg" viewBox="0 0 3000 2995.16">
  <defs>
    <style>
      .cls-1 {
        fill: #231f20;
      }

      .cls-2 {
        fill: #fff;
      }

      .cls-3 {
        fill: #660d0d;
      }
    </style>
  </defs>
  <g>
    <path class="cls-3" d="M1500,2909.66c-191.01,0-376.26-37.33-550.61-110.95-83.8-35.39-164.63-79.19-240.25-130.19-74.92-50.53-145.37-108.57-209.4-172.49-64.03-63.92-122.15-134.26-172.76-209.05-51.08-75.48-94.95-156.17-130.38-239.82-73.72-174.02-111.1-358.92-111.1-549.57s37.38-375.55,111.1-549.57c35.44-83.65,79.31-164.34,130.38-239.82,50.61-74.79,108.73-145.13,172.76-209.05,64.03-63.92,134.48-121.96,209.4-172.49,75.62-51,156.45-94.81,240.25-130.19,174.35-73.62,359.6-110.95,550.61-110.95s376.26,37.33,550.61,110.95c83.8,35.39,164.63,79.19,240.25,130.19,74.92,50.53,145.37,108.57,209.4,172.49,64.03,63.92,122.15,134.26,172.76,209.05,51.08,75.48,94.95,156.17,130.38,239.82,73.72,174.02,111.1,358.92,111.1,549.57s-37.38,375.55-111.1,549.57c-35.44,83.65-79.3,164.34-130.38,239.82-50.61,74.79-108.74,145.12-172.76,209.05-64.03,63.93-134.48,121.96-209.4,172.49-75.62,51-156.45,94.81-240.25,130.19-174.34,73.62-359.6,110.95-550.61,110.95Z"/>
    <path class="cls-1" d="M1500,171c90.3,0,180.49,9.07,268.07,26.96,85.26,17.42,169.13,43.41,249.27,77.25,78.72,33.24,154.65,74.39,225.7,122.31,70.41,47.49,136.62,102.03,196.8,162.11,60.17,60.08,114.8,126.18,162.36,196.46,47.98,70.91,89.19,146.69,122.47,225.26,33.88,79.97,59.9,163.66,77.34,248.74,17.91,87.39,26.99,177.38,26.99,267.48s-9.08,180.09-26.99,267.48c-17.44,85.08-43.46,168.77-77.34,248.74-33.28,78.56-74.49,154.35-122.47,225.26-47.56,70.28-102.18,136.38-162.36,196.46-60.18,60.08-126.39,114.62-196.8,162.11-71.04,47.92-146.98,89.07-225.7,122.31-80.14,33.84-164.01,59.83-249.27,77.25-87.58,17.89-177.77,26.96-268.07,26.96s-180.49-9.07-268.07-26.96c-85.26-17.42-169.13-43.41-249.27-77.25-78.72-33.24-154.65-74.39-225.7-122.31-70.41-47.49-136.62-102.03-196.8-162.11-60.17-60.08-114.8-126.18-162.36-196.46-47.98-70.91-89.19-146.69-122.47-225.26-33.88-79.97-59.9-163.66-77.34-248.74-17.91-87.39-26.99-177.38-26.99-267.48s9.08-180.09,26.99-267.48c17.44-85.08,43.46-168.77,77.34-248.74,33.28-78.56,74.49-154.35,122.47-225.26,47.56-70.28,102.18-136.38,162.36-196.46,60.18-60.08,126.39-114.62,196.8-162.11,71.04-47.92,146.98-89.07,225.7-122.31,80.14-33.84,164.01-59.83,249.27-77.25,87.58-17.89,177.77-26.96,268.07-26.96M1500,0C671.57,0,0,670.49,0,1497.58s671.57,1497.58,1500,1497.58,1500-670.49,1500-1497.58S2328.43,0,1500,0h0Z"/>
  </g>
  <g>
    <g>
      <path class="cls-2" d="M957.11,1451.15c-4.95,0-9.81-1.93-13.44-5.57l-74.55-74.55c-3.57-3.57-5.57-8.41-5.56-13.45l.39-479.49c0-10.48,8.5-18.98,18.98-18.98,0,0,479.5-.39,479.51-.39,5.04,0,9.87,2,13.44,5.57l74.55,74.55c5.43,5.43,7.06,13.6,4.12,20.7-2.94,7.1-9.86,11.73-17.54,11.74l-460.52.37-.37,460.52c0,7.68-4.64,14.6-11.74,17.54-2.35.97-4.81,1.44-7.26,1.44Z"/>
      <path class="cls-2" d="M1362.44,877.72c8.41,8.41,16.82,16.82,16.82,16.82l45.29,45.29s6.43,6.43,12.44,12.43l-373.44.3s-55.55.04-106.05.09c-.04,50.5-.09,106.05-.09,106.05l-.3,373.44c-2.98-2.98-6.07-6.07-8.42-8.42-2.39-2.39-4.02-4.02-4.02-4.02l-45.29-45.29s-8.41-8.41-16.82-16.82l.3-373.44s.04-55.55.09-106.05c50.5-.04,106.05-.09,106.05-.09l373.44-.3M1362.44,839.72h-.03l-373.44.3-106.05.09c-20.96.02-37.95,17.01-37.97,37.97l-.09,106.05-.3,373.44c0,10.09,4,19.77,11.13,26.9l16.82,16.82,45.29,45.29,4.02,4.02,8.42,8.42c7.27,7.27,16.99,11.13,26.88,11.13,4.89,0,9.82-.94,14.52-2.89,14.2-5.87,23.46-19.72,23.47-35.08l.3-373.44.05-68.11,68.11-.05,373.44-.3c15.36-.01,29.21-9.28,35.08-23.47,5.87-14.2,2.62-30.53-8.24-41.4l-12.43-12.43-45.29-45.29-16.82-16.82c-7.13-7.13-16.79-11.13-26.87-11.13h0Z"/>
    </g>
    <g>
      <path class="cls-2" d="M2034.59,1463.6c-2.45,0-4.91-.47-7.26-1.44-7.1-2.94-11.73-9.86-11.74-17.54l-.37-460.52-460.52-.37c-7.68,0-14.6-4.64-17.54-11.74s-1.31-15.27,4.12-20.7l74.55-74.55c3.56-3.56,8.4-5.57,13.44-5.57,0,0,479.51.39,479.51.39,10.48,0,18.98,8.5,18.98,18.98l.39,479.49c0,5.04-2,9.88-5.57,13.45l-74.55,74.55c-3.63,3.63-8.5,5.57-13.44,5.57Z"/>
      <path class="cls-2" d="M1629.27,890.17l373.44.3s55.55.04,106.05.09c.04,50.5.09,106.05.09,106.05l.3,373.44c-8.41,8.41-16.82,16.82-16.82,16.82l-45.29,45.29s-6.43,6.43-12.44,12.44l-.3-373.44s-.04-55.55-.09-106.05c-50.5-.04-106.05-.09-106.05-.09l-373.44-.3c2.98-2.98,6.07-6.07,8.42-8.42,2.39-2.39,4.02-4.02,4.02-4.02l45.29-45.29s8.41-8.41,16.82-16.82M1629.27,852.17c-10.08,0-19.74,4-26.87,11.13l-16.82,16.82-45.29,45.29-4.02,4.02-8.42,8.42c-10.86,10.86-14.12,27.2-8.24,41.4,5.87,14.2,19.72,23.46,35.08,23.47l373.44.3,68.11.05.06,68.11.3,373.44c.01,15.36,9.28,29.21,23.47,35.08,4.7,1.94,9.63,2.89,14.52,2.89,9.89,0,19.61-3.86,26.88-11.13l12.44-12.44,45.29-45.29,16.82-16.82c7.13-7.13,11.14-16.81,11.13-26.9l-.3-373.44-.09-106.05c-.02-20.96-17.01-37.95-37.97-37.97l-106.05-.09-373.44-.3h-.03Z"/>
    </g>
    <g>
      <path class="cls-2" d="M894.95,2123.35c-10.48,0-18.98-8.5-18.98-18.98l-.39-479.49c0-5.04,2-9.88,5.57-13.45l74.55-74.55c3.63-3.63,8.49-5.56,13.44-5.56,2.45,0,4.91.47,7.26,1.44,7.1,2.94,11.73,9.86,11.74,17.54l.37,460.52,460.52.37c7.68,0,14.6,4.64,17.54,11.74s1.31,15.27-4.12,20.7l-74.55,74.55c-3.56,3.56-8.4,5.57-13.44,5.57,0,0-479.51-.39-479.51-.39Z"/>
      <path class="cls-2" d="M969.13,1550.31l.3,373.44s.04,55.55.09,106.05c50.5.04,106.05.09,106.05.09l373.44.3c-2.98,2.98-6.07,6.07-8.42,8.42l-4.02,4.02-45.29,45.29s-8.41,8.41-16.82,16.82l-373.44-.3s-55.55-.04-106.05-.09c-.04-50.5-.09-106.05-.09-106.05l-.3-373.44c8.41-8.41,16.82-16.82,16.82-16.82l45.29-45.29s6.43-6.43,12.44-12.44M969.14,1512.31c-9.89,0-19.61,3.86-26.88,11.13l-12.43,12.43-45.29,45.29-16.82,16.82c-7.13,7.13-11.14,16.81-11.13,26.9l.3,373.44.09,106.05c.02,20.96,17.01,37.95,37.97,37.97l106.05.09,373.44.3h.03c10.08,0,19.74-4,26.87-11.13l16.82-16.82,45.29-45.29,4.02-4.02,5.37-5.37,3.05-3.04c10.86-10.86,14.12-27.2,8.24-41.4-5.87-14.2-19.72-23.46-35.08-23.47l-373.44-.3-68.11-.06-.05-68.11-.3-373.44c-.01-15.36-9.28-29.21-23.47-35.08-4.7-1.94-9.63-2.89-14.52-2.89h0Z"/>
    </g>
    <g>
      <path class="cls-2" d="M1637.56,2131.6c-5.04,0-9.87-2-13.44-5.57l-74.55-74.55c-5.43-5.43-7.06-13.6-4.12-20.7s9.86-11.73,17.54-11.74l460.52-.37.37-460.52c0-7.68,4.64-14.6,11.74-17.54,2.35-.97,4.81-1.44,7.26-1.44,4.94,0,9.8,1.93,13.44,5.57l74.55,74.55c3.57,3.57,5.57,8.41,5.57,13.45l-.39,479.49c0,10.48-8.5,18.98-18.99,18.98,0,0-479.5.39-479.51.39Z"/>
      <path class="cls-2" d="M2042.89,1558.17l8.42,8.42c2.39,2.39,4.02,4.02,4.02,4.02l45.29,45.29,16.82,16.82-.3,373.44s-.04,55.55-.09,106.05c-50.5.04-106.05.09-106.05.09l-373.44.3c-8.41-8.41-16.82-16.82-16.82-16.82l-45.29-45.29s-6.43-6.43-12.44-12.44l373.44-.3s55.55-.04,106.05-.09c.04-50.5.09-106.05.09-106.05l.3-373.44M2042.88,1520.17c-4.89,0-9.82.94-14.52,2.89-14.2,5.87-23.46,19.72-23.47,35.08l-.3,373.44-.05,68.11-68.11.05-373.44.3c-15.36.01-29.21,9.28-35.08,23.47-5.87,14.2-2.62,30.53,8.24,41.4l12.44,12.44,45.29,45.29,16.82,16.82c7.13,7.13,16.79,11.13,26.87,11.13h.03l373.44-.3,106.05-.09c20.96-.02,37.95-17.01,37.97-37.97l.09-106.05.3-373.44c0-10.09-4-19.77-11.13-26.9l-16.82-16.82-45.29-45.29-4.02-4.02-8.42-8.42c-7.27-7.27-16.99-11.13-26.88-11.13h0Z"/>
    </g>
  </g>
  <g>
    <g>
      <path class="cls-2" d="M1849.49,2621.12c-4.94,0-9.79-1.93-13.43-5.55l-325.9-325.38-325.9,325.38c-3.63,3.63-8.49,5.55-13.43,5.55-2.45,0-4.92-.47-7.27-1.45-7.1-2.94-11.72-9.87-11.72-17.55v-105.43c0-5.04,2.01-9.88,5.58-13.45l339.33-338.78c3.71-3.7,8.57-5.55,13.42-5.55s9.71,1.85,13.42,5.55l339.33,338.78c3.57,3.56,5.58,8.4,5.58,13.45v105.43c0,7.68-4.63,14.61-11.72,17.55-2.35.98-4.82,1.45-7.27,1.45Z"/>
      <path class="cls-2" d="M1510.16,2157.91c35.74,35.68,75.05,74.93,75.05,74.93l264.28,263.85v105.43l-264.28-263.85s-39.31-39.25-75.05-74.93c-35.74,35.68-75.05,74.93-75.05,74.93l-264.28,263.85v-105.43l264.28-263.85s39.31-39.25,75.05-74.93M1510.16,2119.91c-9.72,0-19.43,3.7-26.85,11.11l-75.05,74.93-264.28,263.85c-7.14,7.13-11.15,16.8-11.15,26.89v105.43c0,15.36,9.25,29.22,23.44,35.1,4.71,1.95,9.65,2.9,14.55,2.9,9.88,0,19.59-3.85,26.86-11.11l264.28-263.85,48.2-48.12,48.2,48.12,264.28,263.85c7.27,7.26,16.98,11.11,26.86,11.11,4.9,0,9.84-.95,14.55-2.9,14.19-5.89,23.44-19.74,23.44-35.1v-105.43c0-10.09-4.01-19.76-11.15-26.89l-264.28-263.85-75.05-74.93c-7.42-7.41-17.13-11.11-26.85-11.11h0Z"/>
    </g>
    <g>
      <path class="cls-2" d="M1489.84,851.41c-4.86,0-9.72-1.85-13.42-5.55l-339.33-338.78c-3.57-3.56-5.58-8.4-5.58-13.45v-105.43c0-7.68,4.63-14.61,11.72-17.55,2.35-.98,4.82-1.45,7.27-1.45,4.94,0,9.79,1.93,13.43,5.55l325.9,325.38,325.9-325.38c3.63-3.63,8.49-5.55,13.43-5.55,2.45,0,4.92.47,7.27,1.45,7.1,2.94,11.72,9.87,11.72,17.55v105.43c0,5.04-2.01,9.88-5.58,13.45l-339.33,338.78c-3.71,3.7-8.57,5.55-13.42,5.55Z"/>
      <path class="cls-2" d="M1829.17,388.2v105.43l-264.28,263.85s-39.31,39.25-75.05,74.93c-35.74-35.68-75.05-74.93-75.05-74.93l-264.28-263.85v-105.43l264.28,263.85s39.31,39.25,75.05,74.93c35.74-35.68,75.05-74.93,75.05-74.93l264.28-263.85M1829.18,350.2c-9.88,0-19.59,3.85-26.86,11.11l-264.28,263.85-48.2,48.12-48.2-48.12-264.28-263.85c-7.27-7.26-16.98-11.11-26.86-11.11-4.9,0-9.84.95-14.55,2.9-14.19,5.89-23.44,19.74-23.44,35.1v105.43c0,10.09,4.01,19.76,11.15,26.89l264.28,263.85,75.05,74.93c7.42,7.41,17.13,11.11,26.85,11.11s19.43-3.7,26.85-11.11l75.05-74.93,264.28-263.85c7.14-7.13,11.15-16.8,11.15-26.89v-105.43c0-15.36-9.25-29.22-23.44-35.1-4.71-1.95-9.65-2.9-14.55-2.9h0Z"/>
    </g>
    <g>
      <path class="cls-2" d="M2501.53,1863.64c-5.04,0-9.88-2.01-13.45-5.58l-338.78-339.33c-7.41-7.42-7.41-19.43,0-26.85l338.78-339.33c3.56-3.57,8.4-5.58,13.45-5.58h105.43c7.68,0,14.61,4.63,17.55,11.72,2.94,7.1,1.32,15.27-4.1,20.7l-325.38,325.9,325.38,325.9c5.43,5.44,7.05,13.61,4.1,20.7-2.94,7.1-9.87,11.72-17.55,11.72h-105.43Z"/>
      <path class="cls-2" d="M2606.96,1165.99h0M2606.96,1165.99l-263.85,264.28s-39.25,39.31-74.93,75.05c35.68,35.74,74.93,75.05,74.93,75.05l263.85,264.28h-105.43l-263.85-264.28s-39.25-39.31-74.93-75.05c35.68-35.74,74.93-75.05,74.93-75.05l263.85-264.28h105.43M2606.97,1127.99h-105.44c-10.09,0-19.76,4.01-26.89,11.15l-263.85,264.28-74.93,75.05c-14.81,14.83-14.81,38.86,0,53.7l74.93,75.05,263.85,264.28c7.13,7.14,16.8,11.15,26.89,11.15h105.43c15.36,0,29.22-9.25,35.1-23.44,5.89-14.19,2.65-30.53-8.21-41.4l-263.85-264.28-48.12-48.2,48.12-48.2,263.67-264.09c6.97-6.89,11.29-16.46,11.29-27.03,0-20.97-16.99-37.97-37.95-38-.01,0-.02,0-.03,0h-.02ZM2606.96,1203.99h0,0Z"/>
    </g>
    <g>
      <path class="cls-2" d="M393.04,1843.33c-7.68,0-14.61-4.63-17.55-11.72-2.94-7.1-1.32-15.27,4.1-20.7l325.38-325.9-325.38-325.9c-5.43-5.44-7.05-13.61-4.1-20.7,2.94-7.1,9.87-11.72,17.55-11.72h105.43c5.04,0,9.88,2.01,13.45,5.58l338.78,339.33c7.41,7.42,7.41,19.43,0,26.85l-338.78,339.33c-3.56,3.57-8.4,5.58-13.45,5.58h-105.43Z"/>
      <path class="cls-2" d="M498.47,1145.68l263.85,264.28s39.25,39.31,74.93,75.05c-35.68,35.74-74.93,75.05-74.93,75.05l-263.85,264.28h-105.43l263.85-264.28s39.25-39.31,74.93-75.05c-35.68-35.74-74.93-75.05-74.93-75.05l-263.85-264.28h105.43M498.47,1107.68h-105.43c-15.36,0-29.22,9.25-35.1,23.44-5.89,14.19-2.65,30.53,8.21,41.4l263.85,264.28,48.12,48.2-48.12,48.2-263.85,264.28c-10.86,10.87-14.1,27.21-8.21,41.4,5.89,14.19,19.74,23.44,35.1,23.44h105.43c10.09,0,19.76-4.01,26.89-11.15l263.85-264.28,74.93-75.05c14.81-14.83,14.81-38.86,0-53.7l-74.93-75.05-263.85-264.28c-7.13-7.14-16.8-11.15-26.89-11.15h0Z"/>
    </g>
  </g>
  <g>
    <g>
      <path class="cls-2" d="M1839.33,1566.88c-4.94,0-9.79-1.93-13.43-5.55l-325.9-325.38-325.9,325.38c-3.63,3.63-8.49,5.55-13.43,5.55-2.45,0-4.92-.47-7.27-1.45-7.1-2.94-11.72-9.87-11.72-17.55v-105.43c0-5.04,2.01-9.88,5.58-13.45l339.33-338.78c3.71-3.7,8.57-5.55,13.42-5.55s9.72,1.85,13.42,5.55l339.33,338.78c3.57,3.56,5.58,8.4,5.58,13.45v105.43c0,7.68-4.63,14.61-11.72,17.55-2.35.98-4.82,1.45-7.27,1.45Z"/>
      <path class="cls-2" d="M1500,1103.67c35.74,35.68,75.05,74.93,75.05,74.93l264.28,263.85v105.43l-264.28-263.85s-39.31-39.25-75.05-74.93c-35.74,35.68-75.05,74.93-75.05,74.93l-264.28,263.85v-105.43l264.28-263.85s39.31-39.25,75.05-74.93M1500,1065.67c-9.72,0-19.43,3.7-26.85,11.11l-75.05,74.93-264.28,263.85c-7.14,7.13-11.15,16.8-11.15,26.89v105.43c0,15.36,9.25,29.22,23.44,35.1,4.71,1.95,9.65,2.9,14.55,2.9,9.88,0,19.59-3.85,26.86-11.11l264.28-263.85,48.2-48.12,48.2,48.12,264.28,263.85c7.27,7.26,16.98,11.11,26.86,11.11,4.9,0,9.84-.95,14.55-2.9,14.19-5.89,23.44-19.74,23.44-35.1v-105.43c0-10.09-4.01-19.76-11.15-26.89l-264.28-263.85-75.05-74.93c-7.42-7.41-17.13-11.11-26.85-11.11h0Z"/>
    </g>
    <g>
      <path class="cls-2" d="M1500,1905.66c-4.86,0-9.72-1.85-13.42-5.55l-339.33-338.78c-3.57-3.56-5.58-8.4-5.58-13.45v-105.43c0-7.68,4.63-14.61,11.72-17.55,2.35-.98,4.82-1.45,7.27-1.45,4.94,0,9.79,1.93,13.43,5.55l325.9,325.38,325.9-325.38c3.63-3.63,8.49-5.55,13.43-5.55,2.45,0,4.92.47,7.27,1.45,7.1,2.94,11.72,9.87,11.72,17.55v105.43c0,5.04-2.01,9.88-5.58,13.45l-339.33,338.78c-3.71,3.7-8.57,5.55-13.42,5.55Z"/>
      <path class="cls-2" d="M1839.33,1442.45v105.43l-264.28,263.85s-39.31,39.25-75.05,74.93c-35.74-35.68-75.05-74.93-75.05-74.93l-264.28-263.85v-105.43l264.28,263.85s39.31,39.25,75.05,74.93c35.74-35.68,75.05-74.93,75.05-74.93l264.28-263.85M1839.33,1404.44c-9.88,0-19.59,3.85-26.86,11.11l-264.28,263.85-48.2,48.12-48.2-48.12-264.28-263.85c-7.27-7.26-16.98-11.11-26.86-11.11-4.9,0-9.84.95-14.55,2.9-14.19,5.89-23.44,19.74-23.44,35.1v105.43c0,10.09,4.01,19.76,11.15,26.89l264.28,263.85,75.05,74.93c7.42,7.41,17.13,11.11,26.85,11.11s19.43-3.7,26.85-11.11l75.05-74.93,264.28-263.85c7.14-7.13,11.15-16.8,11.15-26.89v-105.43c0-15.36-9.25-29.22-23.44-35.1-4.71-1.95-9.65-2.9-14.55-2.9h0Z"/>
    </g>
    <g>
      <path class="cls-2" d="M1447.28,1853.49c-5.04,0-9.88-2.01-13.45-5.58l-338.78-339.33c-7.41-7.42-7.41-19.43,0-26.85l338.78-339.33c3.56-3.57,8.4-5.58,13.45-5.58h105.43c7.68,0,14.61,4.63,17.55,11.72,2.94,7.1,1.32,15.27-4.1,20.7l-325.38,325.9,325.38,325.9c5.43,5.44,7.05,13.61,4.1,20.7-2.94,7.1-9.87,11.72-17.55,11.72h-105.43Z"/>
      <path class="cls-2" d="M1552.72,1155.83h0M1552.72,1155.83l-263.85,264.28s-39.25,39.31-74.93,75.05c35.68,35.74,74.93,75.05,74.93,75.05l263.85,264.28h-105.43l-263.85-264.28s-39.25-39.31-74.93-75.05c35.68-35.74,74.93-75.05,74.93-75.05l263.85-264.28h105.43M1552.72,1117.83h-105.44c-10.09,0-19.76,4.01-26.89,11.15l-263.85,264.28-74.93,75.05c-14.81,14.83-14.81,38.86,0,53.7l74.93,75.05,263.85,264.28c7.13,7.14,16.8,11.15,26.89,11.15h105.43c15.36,0,29.22-9.25,35.1-23.44,5.89-14.19,2.65-30.53-8.21-41.4l-263.85-264.28-48.12-48.2,48.12-48.2,263.67-264.09c6.97-6.89,11.29-16.46,11.29-27.03,0-20.97-16.99-37.97-37.95-38-.01,0-.02,0-.03,0h-.02ZM1552.72,1193.83h0,0Z"/>
    </g>
    <g>
      <path class="cls-2" d="M1447.28,1853.49c-7.68,0-14.61-4.63-17.55-11.72-2.94-7.1-1.32-15.27,4.1-20.7l325.38-325.9-325.38-325.9c-5.43-5.44-7.05-13.61-4.1-20.7,2.94-7.1,9.87-11.72,17.55-11.72h105.43c5.04,0,9.88,2.01,13.45,5.58l338.78,339.33c7.41,7.42,7.41,19.43,0,26.85l-338.78,339.33c-3.56,3.57-8.4,5.58-13.45,5.58h-105.43Z"/>
      <path class="cls-2" d="M1552.72,1155.83l263.85,264.28s39.25,39.31,74.93,75.05c-35.68,35.74-74.93,75.05-74.93,75.05l-263.85,264.28h-105.43l263.85-264.28s39.25-39.31,74.93-75.05c-35.68-35.74-74.93-75.05-74.93-75.05l-263.85-264.28h105.43M1552.72,1117.83h-105.43c-15.36,0-29.22,9.25-35.1,23.44-5.89,14.19-2.65,30.53,8.21,41.4l263.85,264.28,48.12,48.2-48.12,48.2-263.85,264.28c-10.86,10.87-14.1,27.21-8.21,41.4,5.89,14.19,19.74,23.44,35.1,23.44h105.43c10.09,0,19.76-4.01,26.89-11.15l263.85-264.28,74.93-75.05c14.81-14.83,14.81-38.86,0-53.7l-74.93-75.05-263.85-264.28c-7.13-7.14-16.8-11.15-26.89-11.15h0Z"/>
    </g>
  </g>
</svg>